<svg width="38" height="38" viewBox="0 0 38 38" fill="none" xmlns="http://www.w3.org/2000/svg">
<path d="M38 19C38 27.943 31.8214 35.443 23.5 37.4639C23.4259 37.4819 23.3516 37.4995 23.2771 37.5166C21.9024 37.8329 20.4707 38 19 38C17.5258 38 16.0908 37.8321 14.7131 37.5144C14.6419 37.498 14.5709 37.4812 14.5 37.4639C6.17862 35.443 0 27.943 0 19C0 8.50659 8.50659 0 19 0C29.4934 0 38 8.50659 38 19Z" fill="#2375E1"/>
<path d="M11.9999 11.3943L10.5795 15.2904H30.2555L31.6759 11.3943H11.9999ZM9.87015 17.2367L8.44979 21.132H28.1258L29.5462 17.2367H9.87015ZM7.74457 23.0792L6.32422 26.9736H26.0002L27.419 23.0784C27.4198 23.0792 7.74457 23.0792 7.74457 23.0792Z" fill="white"/>
</svg>
