<svg width="38" height="42" viewBox="0 0 38 42" fill="none" xmlns="http://www.w3.org/2000/svg">
<path d="M38 19C38 27.943 31.8214 35.443 23.5 37.4639C23.4259 37.4819 23.3516 37.4995 23.2771 37.5166C21.9024 37.8329 20.4707 38 19 38C17.5258 38 16.0908 37.8321 14.7131 37.5144C14.6419 37.498 14.5709 37.4812 14.5 37.4639C6.17862 35.443 0 27.943 0 19C0 8.50659 8.50659 0 19 0C29.4934 0 38 8.50659 38 19Z" fill="#B11663"/>
<path d="M19 38C17.5258 38 16.0908 37.8321 14.7131 37.5144C17.0945 38.1316 18 40 19 41.5C20 40 20.9107 38.1289 23.2771 37.5166C21.9024 37.8329 20.4707 38 19 38Z" fill="#B11663"/>
<path d="M11.9998 11.3943L10.5795 15.2904H30.2555L31.6759 11.3943H11.9998ZM9.87014 17.2367L8.44979 21.132H28.1258L29.5462 17.2367H9.87014ZM7.74457 23.0792L6.32421 26.9736H26.0002L27.4189 23.0784C27.4198 23.0792 7.74457 23.0792 7.74457 23.0792Z" fill="white"/>
</svg>
